Coordinates
version=1
nRows=35
nColumns=18
inDegrees=yes

Units are S.I. units (second, meters, Newtons, ...)
If the header above contains a line with 'inDegrees', this indicates whether rotational values are in degrees (yes) or radians (no).

endheader
time	ground_thorax_rot_x	ground_thorax_rot_y	ground_thorax_rot_z	ground_thorax_tx	ground_thorax_ty	ground_thorax_tz	clav_prot	clav_elev	scapula_abduction	scapula_elevation	scapula_upward_rot	scapula_winging	plane_elv	shoulder_elv	axial_rot	elbow_flexion	pro_sup
      0.00000000	      3.15017543	     -3.02262801	     -7.72941552	     -0.00546928	      0.00521379	      0.00166158	    -29.90438391	     -2.31886915	    -24.36144218	     -3.50924510	     14.92976892	      3.71100973	    -26.25345457	     16.61964755	     24.04345574	      0.00000000	     34.32000000
      0.01000000	      3.15088784	     -3.02392527	     -7.72996707	     -0.00554376	      0.00519826	      0.00157696	    -29.90455456	     -2.31871113	    -24.36206738	     -3.50898434	     14.92919642	      3.71105568	    -26.25374393	     16.61964201	     24.04345358	      0.00000000	     34.32000000
      0.02000000	      3.16017896	     -3.06933417	     -7.73742614	     -0.00552763	      0.00519025	      0.00161525	    -29.91115094	     -2.31255627	    -24.38383026	     -3.50093485	     14.91417597	      3.71174815	    -26.26396871	     16.61672379	     24.04314381	      0.00000000	     34.32000000
      0.03000000	      3.16054480	     -3.07015968	     -7.73742818	     -0.00557103	      0.00518005	      0.00157087	    -29.91125250	     -2.31260977	    -24.38414947	     -3.50091028	     14.91389573	      3.71181793	    -26.26409911	     16.61651375	     24.04312867	      0.00000000	     34.32000000
      0.04000000	      3.16088908	     -3.07031770	     -7.73700679	     -0.00554525	      0.00518007	      0.00155527	    -29.91119184	     -2.31283285	    -24.38414314	     -3.50100547	     14.91362604	      3.71196855	    -26.26409080	     16.61599032	     24.04310044	      0.00000000	     34.32000000
      0.05000000	      3.16239678	     -3.07059839	     -7.73612811	     -0.00550970	      0.00519383	      0.00153841	    -29.91079271	     -2.31343941	    -24.38410970	     -3.50108722	     14.91227140	      3.71258466	    -26.26415124	     16.61411827	     24.04299725	      0.00000000	     34.32000000
      0.06000000	      3.18870128	     -3.08032903	     -7.73477769	     -0.00550897	      0.00521544	      0.00162812	    -29.90549663	     -2.31811585	    -24.38872630	     -3.49788222	     14.88754888	      3.72146436	    -26.26896685	     16.59320532	     24.04204632	      0.00000000	     34.32000000
      0.07000000	      3.18947585	     -3.08090506	     -7.73479952	     -0.00551798	      0.00514909	      0.00160773	    -29.90553433	     -2.31825750	    -24.38904946	     -3.49785208	     14.88702164	      3.72163568	    -26.26916345	     16.59310423	     24.04205934	      0.00000000	     34.32000000
      0.08000000	      3.20424989	     -3.11203680	     -7.74904649	     -0.00544479	      0.00510599	      0.00165715	    -29.91099772	     -2.31430704	    -24.40959263	     -3.49083513	     14.86981647	      3.72379243	    -26.27874792	     16.59970943	     24.04331585	      0.00000000	     34.32000000
      0.09000000	      3.20413300	     -3.11302042	     -7.74951991	     -0.00550154	      0.00514133	      0.00161344	    -29.91122512	     -2.31407459	    -24.41010483	     -3.49062692	     14.86967084	      3.72372070	    -26.27890543	     16.59991737	     24.04333817	      0.00000000	     34.32000000
      0.10000000	      3.18872423	     -3.15441085	     -7.74857421	     -0.00547848	      0.00514485	      0.00166233	    -29.92087467	     -2.30844837	    -24.42990265	     -3.48615127	     14.86611660	      3.72101414	    -26.28540443	     16.60236079	     24.04414444	      0.00000000	     34.32000000
      0.11000000	      3.18846704	     -3.15458406	     -7.74857628	     -0.00553109	      0.00516952	      0.00168808	    -29.92086649	     -2.30843542	    -24.42986731	     -3.48615189	     14.86615937	      3.72100041	    -26.28543295	     16.60225560	     24.04414169	      0.00000000	     34.32000000
      0.12000000	      3.18865325	     -3.15463302	     -7.74813744	     -0.00553863	      0.00515278	      0.00169055	    -29.92081912	     -2.30868001	    -24.42977229	     -3.48630918	     14.86606379	      3.72110995	    -26.28546176	     16.60188513	     24.04412194	      0.00000000	     34.32000000
      0.13000000	      3.18902675	     -3.15474809	     -7.74762311	     -0.00552645	      0.00513153	      0.00167246	    -29.92079347	     -2.30898226	    -24.42974848	     -3.48648906	     14.86588012	      3.72125585	    -26.28550259	     16.60146661	     24.04410036	      0.00000000	     34.32000000
      0.14000000	      3.18890863	     -3.15475529	     -7.74733983	     -0.00551119	      0.00513859	      0.00168334	    -29.92081311	     -2.30908693	    -24.42971089	     -3.48658646	     14.86594465	      3.72126761	    -26.28548510	     16.60138053	     24.04410207	      0.00000000	     34.32000000
      0.15000000	      3.18850665	     -3.15470383	     -7.74717083	     -0.00549965	      0.00514651	      0.00170988	    -29.92087798	     -2.30909021	    -24.42966294	     -3.48666024	     14.86620294	      3.72118906	    -26.28542384	     16.60156837	     24.04412181	      0.00000000	     34.32000000
      0.16000000	      3.18879663	     -3.15492279	     -7.74681090	     -0.00549212	      0.00511308	      0.00169034	    -29.92095285	     -2.30931654	    -24.42976048	     -3.48681923	     14.86613303	      3.72126237	    -26.28544591	     16.60151916	     24.04412460	      0.00000000	     34.32000000
      0.17000000	      3.19001805	     -3.15538261	     -7.74623729	     -0.00548372	      0.00505493	      0.00163051	    -29.92096697	     -2.30983138	    -24.42999681	     -3.48705175	     14.86551709	      3.72157801	    -26.28560157	     16.60098055	     24.04409525	      0.00000000	     34.32000000
      0.18000000	      3.22013993	     -3.16494629	     -7.73859505	     -0.00549152	      0.00508758	      0.00169874	    -29.91937198	     -2.32148348	    -24.43578119	     -3.49062114	     14.84554713	      3.73065568	    -26.29191530	     16.58750507	     24.04371365	      0.00000000	     34.32000000
      0.19000000	      3.22012909	     -3.16521516	     -7.73885475	     -0.00552115	      0.00507192	      0.00173538	    -29.91945086	     -2.32146341	    -24.43592761	     -3.49060498	     14.84552542	      3.73064237	    -26.29204174	     16.58795310	     24.04376858	      0.00000000	     34.32000000
      0.20000000	      3.22557178	     -3.18441729	     -7.75445485	     -0.00546967	      0.00502750	      0.00180752	    -29.92512137	     -2.31812539	    -24.44792844	     -3.48779499	     14.84283454	      3.72919602	    -26.30008387	     16.61775071	     24.04701063	      0.00000000	     34.32000000
      0.21000000	      3.22586952	     -3.18467243	     -7.75458730	     -0.00547548	      0.00501310	      0.00180616	    -29.92520800	     -2.31818165	    -24.44811868	     -3.48781709	     14.84272939	      3.72922395	    -26.30021788	     16.61818453	     24.04705422	      0.00000000	     34.32000000
      0.22000000	      3.22632382	     -3.18492473	     -7.75476985	     -0.00545863	      0.00499740	      0.00179961	    -29.92528865	     -2.31822474	    -24.44837064	     -3.48779893	     14.84250942	      3.72927838	    -26.30039433	     16.61863755	     24.04710178	      0.00000000	     34.32000000
      0.23000000	      3.24308529	     -3.19143559	     -7.77156803	     -0.00534513	      0.00500102	      0.00184741	    -29.93119053	     -2.31840252	    -24.46142277	     -3.48692567	     14.83692753	      3.72962035	    -26.31154336	     16.65744852	     24.05076659	      0.00000000	     34.32000000
      0.24000000	      3.24312811	     -3.19113499	     -7.77141346	     -0.00532769	      0.00500632	      0.00184020	    -29.93121898	     -2.31854203	    -24.46138176	     -3.48705339	     14.83700469	      3.72963793	    -26.31159768	     16.65767037	     24.05078906	      0.00000000	     34.32000000
      0.25000000	      3.24371285	     -3.19195750	     -7.77180546	     -0.00536943	      0.00501084	      0.00175718	    -29.93139790	     -2.31850547	    -24.46194784	     -3.48692703	     14.83657136	      3.72970368	    -26.31194346	     16.65788116	     24.05080444	      0.00000000	     34.32000000
      0.26000000	      3.25471758	     -3.23670979	     -7.78637020	     -0.00535366	      0.00502788	      0.00174664	    -29.94500443	     -2.31472157	    -24.49862383	     -3.47943516	     14.81478605	      3.73150075	    -26.33861863	     16.67842180	     24.05221801	      0.00000000	     34.32000000
      0.27000000	      3.24759199	     -3.28240069	     -7.79515380	     -0.00539909	      0.00505314	      0.00171316	    -29.95706664	     -2.30788528	    -24.52917542	     -3.47145112	     14.80050717	      3.73071269	    -26.36048849	     16.69380591	     24.05339059	      0.00000000	     34.32000000
      0.28000000	      3.24142814	     -3.32525758	     -7.79986621	     -0.00543669	      0.00504560	      0.00170426	    -29.96702685	     -2.30417863	    -24.55463265	     -3.46597422	     14.78734856	      3.73101189	    -26.38039342	     16.70924053	     24.05533152	      0.00000000	     34.32000000
      0.29000000	      3.25162326	     -3.36827488	     -7.80210934	     -0.00541803	      0.00497747	      0.00168283	    -29.97669780	     -2.31081995	    -24.58016166	     -3.46672997	     14.76803095	      3.73615144	    -26.40356527	     16.72849160	     24.05944953	      0.00000000	     34.32000000
      0.30000000	      3.25792617	     -3.42827507	     -7.80394252	     -0.00533760	      0.00490084	      0.00160475	    -29.99681326	     -2.33312820	    -24.61866833	     -3.47994342	     14.74800639	      3.74424152	    -26.44047425	     16.77633967	     24.07133466	      0.00000000	     34.32000000
      0.31000000	      3.22852260	     -3.49267895	     -7.80472406	     -0.00525871	      0.00487024	      0.00147914	    -30.03095470	     -2.36795668	    -24.66701765	     -3.50782928	     14.74406920	      3.74926805	    -26.48821495	     16.86309286	     24.09312293	      0.00000000	     34.32000000
      0.32000000	      2.89632446	     -3.28940682	     -7.77673092	     -0.00531692	      0.00521416	      0.00114666	    -30.16086808	     -2.82858334	    -24.90897769	     -3.79562965	     14.46856168	      3.94022740	    -27.35260684	     17.25219559	     24.42788147	      0.00000000	     34.32000000
      0.33000000	      2.84390740	     -3.31015792	     -7.81321562	     -0.00526667	      0.00510195	      0.00121435	    -30.18189317	     -2.79610257	    -24.92109467	     -3.78649931	     14.52271514	      3.91165837	    -27.35441381	     17.34301130	     24.43893634	      0.00000000	     34.32000000
      0.34000000	      2.93362812	     -3.26286077	     -7.78016575	     -0.00523675	      0.00525720	      0.00118321	    -30.22560184	     -2.76180541	    -24.93780219	     -3.79214172	     14.63305710	      3.86354302	    -27.36708586	     17.57731447	     24.47289360	      0.00000000	     34.32000000
